[2026-03-14 19:12:36] [INFO] Jarvis Desktop launcher started.
[2026-03-14 19:12:36] [INFO] Runtime log path: C:\Jarvis\logs\runtime_2026-03-14_19-12-36.txt
[2026-03-14 19:12:36] [INFO] Launcher executable: C:\Users\anden\AppData\Local\Python\pythoncore-3.14-64\pythonw.exe
[2026-03-14 19:12:36] [INFO] Root directory: C:\Jarvis
[2026-03-14 19:12:36] [INFO] Target script: C:\Jarvis\jarvis_desktop_test.py
[2026-03-14 19:12:36] [INFO] Diagnostics script: C:\Jarvis\desktop\jarvis_diagnostics.pyw
[2026-03-14 19:12:36] [INFO] Recovery attempts allowed: 3
[2026-03-14 19:12:36] [INFO] Voice hook ready: C:\Jarvis\jarvis_voice.py
[2026-03-14 19:12:36] [INFO] Starting desktop renderer process. attempt=1
[2026-03-14 19:12:36] [INFO] Child executable: C:\Users\anden\AppData\Local\Python\pythoncore-3.14-64\pythonw.exe
[2026-03-14 19:12:37] [STDOUT] Jarvis Desktop Concept 1 - Version 1.02
[2026-03-14 19:12:37] [STDOUT] Hotkey: Ctrl + Alt + End
[2026-03-14 19:12:37] [STDERR] Traceback (most recent call last):
[2026-03-14 19:12:37] [STDERR]   File "C:\Jarvis\jarvis_desktop_test.py", line 44, in <module>
[2026-03-14 19:12:37] [STDERR]     raise SystemExit(main())
[2026-03-14 19:12:37] [STDERR]                      ~~~~^^
[2026-03-14 19:12:37] [STDERR]   File "C:\Jarvis\jarvis_desktop_test.py", line 36, in main
[2026-03-14 19:12:37] [STDERR]     raise RuntimeError("Jarvis test crash triggered intentionally")
[2026-03-14 19:12:37] [STDERR] RuntimeError: Jarvis test crash triggered intentionally
[2026-03-14 19:12:37] [INFO] Desktop renderer exited. exit_code=1
[2026-03-14 19:12:37] [WARN] Recovery attempt 1/3
[2026-03-14 19:12:38] [INFO] Starting desktop renderer process. attempt=2
[2026-03-14 19:12:38] [INFO] Child executable: C:\Users\anden\AppData\Local\Python\pythoncore-3.14-64\pythonw.exe
[2026-03-14 19:12:38] [STDOUT] Jarvis Desktop Concept 1 - Version 1.02
[2026-03-14 19:12:38] [STDOUT] Hotkey: Ctrl + Alt + End
[2026-03-14 19:12:38] [STDERR] Traceback (most recent call last):
[2026-03-14 19:12:38] [STDERR]   File "C:\Jarvis\jarvis_desktop_test.py", line 44, in <module>
[2026-03-14 19:12:38] [STDERR]     raise SystemExit(main())
[2026-03-14 19:12:38] [STDERR]                      ~~~~^^
[2026-03-14 19:12:38] [STDERR]   File "C:\Jarvis\jarvis_desktop_test.py", line 36, in main
[2026-03-14 19:12:38] [STDERR]     raise RuntimeError("Jarvis test crash triggered intentionally")
[2026-03-14 19:12:38] [STDERR] RuntimeError: Jarvis test crash triggered intentionally
[2026-03-14 19:12:38] [INFO] Desktop renderer exited. exit_code=1
[2026-03-14 19:12:38] [WARN] Recovery attempt 2/3
[2026-03-14 19:12:40] [INFO] Starting desktop renderer process. attempt=3
[2026-03-14 19:12:40] [INFO] Child executable: C:\Users\anden\AppData\Local\Python\pythoncore-3.14-64\pythonw.exe
[2026-03-14 19:12:40] [STDOUT] Jarvis Desktop Concept 1 - Version 1.02
[2026-03-14 19:12:40] [STDOUT] Hotkey: Ctrl + Alt + End
[2026-03-14 19:12:40] [STDERR] Traceback (most recent call last):
[2026-03-14 19:12:40] [STDERR]   File "C:\Jarvis\jarvis_desktop_test.py", line 44, in <module>
[2026-03-14 19:12:40] [STDERR]     raise SystemExit(main())
[2026-03-14 19:12:40] [STDERR]                      ~~~~^^
[2026-03-14 19:12:40] [STDERR]   File "C:\Jarvis\jarvis_desktop_test.py", line 36, in main
[2026-03-14 19:12:40] [STDERR]     raise RuntimeError("Jarvis test crash triggered intentionally")
[2026-03-14 19:12:40] [STDERR] RuntimeError: Jarvis test crash triggered intentionally
[2026-03-14 19:12:40] [INFO] Desktop renderer exited. exit_code=1
[2026-03-14 19:12:40] [ERROR] Crash log written: C:\Jarvis\logs\crash\crash_2026-03-14_19-12-40.txt
[2026-03-14 19:12:40] [INFO] Trying voice line 'Um..... Sir, I seem to be malfunctioning.' using voice --text --mode
[2026-03-14 19:12:46] [VOICE_STDERR] [mp3 @ 0000021E1AA27A40] Estimating duration from bitrate, this may be inaccurate
[2026-03-14 19:12:46] [VOICE_STDERR] Input #0, mp3, from 'C:/Users/anden/AppData/Local/Temp/tmp518a432v.mp3':
[2026-03-14 19:12:46] [VOICE_STDERR]   Duration: 00:00:04.94, start: 0.000000, bitrate: 48 kb/s
[2026-03-14 19:12:46] [VOICE_STDERR]   Stream #0:0: Audio: mp3 (mp3float), 24000 Hz, mono, fltp, 48 kb/s
[2026-03-14 19:12:46] [INFO] Voice line completed: Um..... Sir, I seem to be malfunctioning.
[2026-03-14 19:12:46] [INFO] Failure voice step 1/3 success=True line=Um..... Sir, I seem to be malfunctioning.
[2026-03-14 19:12:47] [INFO] Trying voice line 'Attempting restart.' using voice --text --mode
[2026-03-14 19:12:51] [VOICE_STDERR] [mp3 @ 00000250D21D6A80] Estimating duration from bitrate, this may be inaccurate
[2026-03-14 19:12:51] [VOICE_STDERR] Input #0, mp3, from 'C:/Users/anden/AppData/Local/Temp/tmpub7ehnr1.mp3':
[2026-03-14 19:12:51] [VOICE_STDERR]   Duration: 00:00:02.57, start: 0.000000, bitrate: 48 kb/s
[2026-03-14 19:12:51] [VOICE_STDERR]   Stream #0:0: Audio: mp3 (mp3float), 24000 Hz, mono, fltp, 48 kb/s
[2026-03-14 19:12:51] [INFO] Voice line completed: Attempting restart.
[2026-03-14 19:12:51] [INFO] Failure voice step 2/3 success=True line=Attempting restart.
[2026-03-14 19:12:52] [INFO] Trying voice line 'Restart failed.' using voice --text --mode
[2026-03-14 19:12:55] [VOICE_STDERR] [mp3 @ 000001E9656EFB00] Estimating duration from bitrate, this may be inaccurate
[2026-03-14 19:12:55] [VOICE_STDERR] Input #0, mp3, from 'C:/Users/anden/AppData/Local/Temp/tmpk565kqoq.mp3':
[2026-03-14 19:12:55] [VOICE_STDERR]   Duration: 00:00:02.47, start: 0.000000, bitrate: 48 kb/s
[2026-03-14 19:12:55] [VOICE_STDERR]   Stream #0:0: Audio: mp3 (mp3float), 24000 Hz, mono, fltp, 48 kb/s
[2026-03-14 19:12:55] [INFO] Voice line completed: Restart failed.
[2026-03-14 19:12:55] [INFO] Failure voice step 3/3 success=True line=Restart failed.
[2026-03-14 19:12:56] [INFO] Diagnostics process launched.
